{"title":"Shaggy - Hey Sexy Lady [Spanish Fly Dance Mix] 1080p [Sbyky]","uid":11050368,"size":110576455,"categoryP":"video","categoryS":"music_videos","magnet":"?xt=urn:btih:2f78312d5e16955680d80db943fe2dcaaad6cef9&amp;dn=Shaggy+-+Hey+Sexy+Lady+%5BSpanish+Fly+Dance+Mix%5D+1080p+%5BSbyky%5D&amp;tr=udp%3A%2F%2Ftracker.openbittorrent.com%3A80&amp;tr=udp%3A%2F%2Fopen.demonii.com%3A1337&amp;tr=udp%3A%2F%2Ftracker.coppersurfer.tk%3A6969&amp;tr=udp%3A%2F%2Fexodus.desync.com%3A6969","seeders":1,"leechers":0,"uploader":"Sbyky","files":1,"time":1411018158,"description":"General\nComplete name                            : Shaggy - Hey Sexy Lady [Spanish Fly Dance Mix] 1080p [Sbyky].MP4\nFormat                                   : MPEG-4\nFormat profile                           : Base Media\nCodec ID                                 : isom\nFile size                                : 105 MiB\nDuration                                 : 3mn 29s\nOverall bit rate mode                    : Variable\nOverall bit rate                         : 4 220 Kbps\nEncoded date                             : UTC 2014-03-09 00:29:46\nTagged date                              : UTC 2014-03-09 00:29:46\n\nVideo\nID                                       : 1\nFormat                                   : AVC\nFormat/Info                              : Advanced Video Codec\nFormat profile                           : &lt;a class=&quot;__cf_email__&quot; href=&quot;/cdn-cgi/l/email-protection&quot; data-cfemail=&quot;1058797778505c243e20&quot;&gt;[email&amp;#160;protected]&lt;/a&gt;&lt;script data-cfhash='f9e31' type=&quot;text/javascript&quot;&gt;\n/* &lt;![CDATA[ */!function(){try{var t=&quot;currentScript&quot;in document?document.currentScript:function(){for(var t=document.getElementsByTagName(&quot;script&quot;),e=t.length;e--;)if(t[e].getAttribute(&quot;data-cfhash&quot;))return t[e]}();if(t&amp;&amp;t.previousSibling){var e,r,n,i,c=t.previousSibling,a=c.getAttribute(&quot;data-cfemail&quot;);if(a){for(e=&quot;&quot;,r=parseInt(a.substr(0,2),16),n=2;a.length-n;n+=2)i=parseInt(a.substr(n,2),16)^r,e+=String.fromCharCode(i);e=document.createTextNode(e),c.parentNode.replaceChild(e,c)}t.parentNode.removeChild(t);}}catch(u){}}()/* ]]&gt; */&lt;/script&gt;\nFormat settings, CABAC                   : Yes\nFormat settings, ReFrames                : 2 frames\nCodec ID                                 : avc1\nCodec ID/Info                            : Advanced Video Coding\nDuration                                 : 3mn 29s\nBit rate                                 : 4 092 Kbps\nWidth                                    : 1 920 pixels\nHeight                                   : 1 080 pixels\nDisplay aspect ratio                     : 16:9\nFrame rate mode                          : Constant\nFrame rate                               : 25.000 fps\nColor space                              : YUV\nChroma subsampling                       : 4:2:0\nBit depth                                : 8 bits\nScan type                                : Progressive\nBits/(Pixel*Frame)                       : 0.079\nStream size                              : 102 MiB (97%)\nEncoded date                             : UTC 2014-03-09 00:29:46\nTagged date                              : UTC 2014-03-09 00:29:46\n\nAudio\nID                                       : 2\nFormat                                   : AAC\nFormat/Info                              : Advanced Audio Codec\nFormat profile                           : LC\nCodec ID                                 : 40\nDuration                                 : 3mn 29s\nBit rate mode                            : Variable\nBit rate                                 : 126 Kbps\nChannel(s)                               : 2 channels\nChannel positions                        : Front: L R\nSampling rate                            : 44.1 KHz\nCompression mode                         : Lossy\nStream size                              : 3.14 MiB (3%)\nEncoded date                             : UTC 2014-03-09 00:29:33\nTagged date                              : UTC 2014-03-09 00:29:33\n\nShared By Sbyky\n","torrent":{"xt":"urn:btih:2f78312d5e16955680d80db943fe2dcaaad6cef9","amp;dn":"Shaggy+-+Hey+Sexy+Lady+%5BSpanish+Fly+Dance+Mix%5D+1080p+%5BSbyky%5D","amp;tr":["udp%3A%2F%2Ftracker.openbittorrent.com%3A80","udp%3A%2F%2Fopen.demonii.com%3A1337","udp%3A%2F%2Ftracker.coppersurfer.tk%3A6969","udp%3A%2F%2Fexodus.desync.com%3A6969"],"infoHash":"2f78312d5e16955680d80db943fe2dcaaad6cef9","infoHashBuffer":{"type":"Buffer","data":[47,120,49,45,94,22,149,86,128,216,13,185,67,254,45,202,170,214,206,249]},"announce":[],"urlList":[]}}